# xmcd CD database file
#
# Track frame offsets:
#	150
#	14959
#	31486
#	46029
#	57945
#	75324
#	92687
#	107993
#	122703
#	138401
#	155307
#	170914
#	191833
#	206686
#
# Disc length: 2967 seconds
#
# Revision: 0
# Processed by: cddbd v1.5.2PL0 Copyright (c) Steve Scherf et al.
# Submitted via: CDex 2.00
#
DISCID=c20b950e
DTITLE=Beegie Adair - Cocktail Party Jazz 2
DYEAR=2014
DGENRE=Jazz
TTITLE0=I've Got the World On A String
TTITLE1=Come Fly With Me
TTITLE2=Tangerine
TTITLE3=Gone With the Wind
TTITLE4=They Can't Take That Away From Me
TTITLE5=That Old Black Magic
TTITLE6=Orange Colored Sky
TTITLE7=Tenderly
TTITLE8=You Make Me Feel So Young
TTITLE9=All Of You
TTITLE10=Swinging On A Star
TTITLE11=Black Orpheus
TTITLE12=Begin the Beguine
TTITLE13=Our Love is Here To Stay
EXTD=YEAR: 2014
EXTT0=
EXTT1=
EXTT2=
EXTT3=
EXTT4=
EXTT5=
EXTT6=
EXTT7=
EXTT8=
EXTT9=
EXTT10=
EXTT11=
EXTT12=
EXTT13=
PLAYORDER=
